<svg width="200" height="48" viewBox="0 0 200 48" fill="none" xmlns="http://www.w3.org/2000/svg">
<rect x="4" y="15.5" width="39" height="17" rx="8.5" stroke="#0C111D" stroke-width="5"/>
<path d="M59.962 11.4199H55.25V33.2499H59.962V11.4199Z" fill="#0C111D"/>
<path d="M66.9974 12.4199H62.5014V33.2499H66.9974V27.6702L72.8574 33.2499H78.9349L70.2899 25.1331L78.4878 18.7099H72.1674L66.9974 22.8662V12.4199Z" fill="#0C111D"/>
<path d="M138.562 11.4199H133.85V33.2499H150.442V29.0779H138.562V11.4199Z" fill="#0C111D"/>
<path fill-rule="evenodd" clip-rule="evenodd" d="M172.499 12.4199H168.003V33.2499H172.787L172.619 32.0217C173.678 33.1328 175.134 33.6819 176.974 33.6819C178.18 33.6819 179.285 33.3726 180.25 32.6912C181.209 32.0139 181.938 31.0855 182.467 29.917C182.996 28.747 183.272 27.4152 183.272 25.9259C183.272 24.4891 182.995 23.1847 182.467 22.0159C181.937 20.8449 181.207 19.9445 180.25 19.2686L180.246 19.2659C179.286 18.6163 178.184 18.2779 176.974 18.2779C175.063 18.2779 173.567 18.8699 172.499 20.068V12.4199ZM173.36 23.2766C173.932 22.5798 174.671 22.2339 175.597 22.2339C176.494 22.2339 177.236 22.5787 177.839 23.2554C178.441 23.959 178.749 24.8429 178.749 25.9529C178.749 27.0917 178.44 27.9759 177.837 28.6792C177.235 29.3814 176.494 29.7259 175.597 29.7259C174.671 29.7259 173.932 29.38 173.36 28.6832L173.357 28.6792C172.756 27.979 172.472 27.0966 172.472 25.9529C172.472 24.8649 172.756 23.9819 173.357 23.2807L173.36 23.2766Z" fill="#0C111D"/>
<path d="M81.2626 11.9599C80.4455 11.9599 79.7893 12.2255 79.255 12.7302L79.2499 12.7351C78.7159 13.2691 78.4476 13.9272 78.4476 14.6939C78.4476 15.5118 78.7139 16.1707 79.2499 16.7067C79.7905 17.2473 80.4521 17.4819 81.2626 17.4819C82.0549 17.4819 82.7134 17.2147 83.2484 16.6797C83.7834 16.1447 84.0506 15.4862 84.0506 14.6939C84.0506 13.9272 83.7825 13.2691 83.2485 12.7351L83.2433 12.7302C82.7099 12.2264 82.0541 11.9599 81.2626 11.9599Z" fill="#0C111D"/>
<path d="M121.785 11.9599C120.968 11.9599 120.311 12.2255 119.777 12.7302L119.772 12.7351C119.238 13.2691 118.97 13.9272 118.97 14.6939C118.97 15.5118 119.236 16.1707 119.772 16.7067C120.313 17.2473 120.974 17.4819 121.785 17.4819C122.577 17.4819 123.236 17.2147 123.771 16.6797C124.306 16.1447 124.573 15.4862 124.573 14.6939C124.573 13.9272 124.305 13.2691 123.771 12.7351L123.765 12.7302C123.232 12.2264 122.576 11.9599 121.785 11.9599Z" fill="#0C111D"/>
<path fill-rule="evenodd" clip-rule="evenodd" d="M91.6927 18.2779C90.4564 18.2779 89.3543 18.616 88.3936 19.2659L88.3895 19.2687C87.4353 19.9422 86.6766 20.8417 86.1719 22.0181C85.642 23.1905 85.3947 24.5222 85.3947 26.0069C85.3947 27.4653 85.6422 28.7448 86.1737 29.8649C86.6783 30.9851 87.4114 31.8337 88.3731 32.4282C89.3382 33.0521 90.4398 33.3309 91.6927 33.3309C93.5918 33.3309 95.0867 32.8071 96.1407 31.7337V32.0549C96.1407 33.3308 95.8992 34.1975 95.4226 34.7217L95.419 34.7259C94.9417 35.2747 94.2124 35.5579 93.1777 35.5579C92.3082 35.5579 91.6537 35.4256 91.1651 35.1569C90.6924 34.8969 90.4219 34.5087 90.3757 33.9773L90.3559 33.7489H85.832L85.8545 34.0197C85.9947 35.7015 86.6733 36.9906 87.9327 37.8497C89.1535 38.7009 90.8594 39.0819 92.9887 39.0819C95.492 39.0819 97.4197 38.5148 98.7223 37.3293C100.029 36.1398 100.664 34.3676 100.664 32.0549V18.7099H95.8524L96.0188 19.8928C94.9757 18.8219 93.5242 18.2779 91.6927 18.2779ZM90.7755 23.1186C91.3765 22.4174 92.1175 22.0719 93.0427 22.0719C93.9388 22.0719 94.6797 22.4159 95.2812 23.1167C95.8587 23.8208 96.1677 24.7333 96.1677 25.8449C96.1677 26.9839 95.8586 27.8673 95.284 28.5428C94.6853 29.2154 93.9446 29.5369 93.0427 29.5369C92.0832 29.5369 91.3475 29.2132 90.779 28.5211L90.7725 28.5138C90.1754 27.8421 89.8907 26.962 89.8907 25.8449C89.8907 24.7274 90.1757 23.8184 90.7755 23.1186Z" fill="#0C111D"/>
<path fill-rule="evenodd" clip-rule="evenodd" d="M108.704 18.2779C107.467 18.2779 106.365 18.616 105.405 19.2659L105.401 19.2687C104.447 19.9421 103.688 20.8413 103.183 21.9904C102.654 23.162 102.406 24.4668 102.406 25.9259C102.406 27.4106 102.653 28.7423 103.183 29.9147C103.687 31.0888 104.444 32.0162 105.401 32.6912C106.366 33.373 107.472 33.6819 108.704 33.6819C110.532 33.6819 111.984 33.1587 113.028 32.0788L112.862 33.2499H117.675V18.7099H112.862L113.031 19.9056C111.973 18.8272 110.522 18.2779 108.704 18.2779ZM106.902 25.9529C106.902 24.8379 107.185 23.9557 107.785 23.2553C108.387 22.5795 109.129 22.2339 110.054 22.2339C110.95 22.2339 111.692 22.578 112.294 23.2534C112.871 23.9582 113.179 24.8437 113.179 25.9529C113.179 27.0908 112.87 27.9766 112.292 28.6811C111.691 29.382 110.95 29.7259 110.054 29.7259C109.129 29.7259 108.388 29.3805 107.787 28.6792C107.186 27.979 106.902 27.0966 106.902 25.9529Z" fill="#0C111D"/>
<path fill-rule="evenodd" clip-rule="evenodd" d="M157.17 18.2779C155.933 18.2779 154.831 18.616 153.871 19.2659L153.867 19.2687C152.913 19.9421 152.154 20.8413 151.649 21.9904C151.12 23.162 150.872 24.4668 150.872 25.9259C150.872 27.4105 151.119 28.7422 151.649 29.9145C152.153 31.0887 152.91 32.0161 153.867 32.6912C154.832 33.373 155.938 33.6819 157.17 33.6819C158.999 33.6819 160.452 33.1579 161.496 32.0764L161.333 33.2499H166.141V18.7099H161.333L161.499 19.9079C160.441 18.828 158.989 18.2779 157.17 18.2779ZM155.368 25.9529C155.368 24.838 155.651 23.9558 156.251 23.2554C156.852 22.5796 157.595 22.2339 158.52 22.2339C159.416 22.2339 160.158 22.578 160.76 23.2533C161.337 23.9581 161.645 24.8437 161.645 25.9529C161.645 27.0909 161.336 27.9768 160.758 28.6813C160.157 29.3821 159.416 29.7259 158.52 29.7259C157.595 29.7259 156.854 29.3805 156.253 28.6792C155.652 27.979 155.368 27.0966 155.368 25.9529Z" fill="#0C111D"/>
<path d="M191.64 18.2779C189.555 18.2779 187.881 18.7166 186.639 19.5634L186.636 19.5656C185.381 20.45 184.775 21.6607 184.775 23.1449C184.775 24.2653 185.056 25.1702 185.65 25.8241C186.223 26.4541 186.939 26.8831 187.738 27.1113C188.509 27.3318 189.494 27.5227 190.688 27.6856C191.809 27.8458 192.6 28.0311 193.118 28.212C193.357 28.3081 193.515 28.4256 193.614 28.5571C193.712 28.6868 193.766 28.848 193.766 29.0579C193.766 29.3832 193.587 29.6953 193.191 29.9919C192.821 30.2696 192.29 30.4009 191.586 30.4009C190.758 30.4009 190.11 30.2198 189.624 29.8791C189.144 29.5437 188.893 29.1042 188.893 28.5179V28.2679H184.42L184.424 28.5223C184.453 30.1362 185.109 31.4266 186.391 32.3387C187.637 33.2442 189.342 33.6819 191.478 33.6819C193.533 33.6819 195.183 33.2714 196.4 32.422C197.625 31.5678 198.262 30.4131 198.262 28.9229C198.262 27.7465 197.954 26.8156 197.36 26.1627L197.356 26.1583C196.762 25.5363 196.05 25.0782 195.246 24.8485L195.244 24.8479C194.45 24.6289 193.44 24.4105 192.241 24.2471L192.232 24.2462C191.157 24.1387 190.378 23.9791 189.901 23.7783L189.891 23.7743C189.669 23.6928 189.526 23.5837 189.436 23.4605C189.348 23.3382 189.298 23.1828 189.298 22.9829C189.298 22.5761 189.45 22.2455 189.818 21.969C190.166 21.7137 190.675 21.5589 191.397 21.5589C192.156 21.5589 192.719 21.759 193.155 22.0955C193.553 22.4501 193.772 22.9241 193.821 23.5429L193.84 23.7729H198.285L198.261 23.5011C198.121 21.9004 197.47 20.6192 196.277 19.6813C195.089 18.7478 193.545 18.2779 191.64 18.2779Z" fill="#0C111D"/>
<path d="M83.5106 18.7099H78.9876V33.2499H83.5106V18.7099Z" fill="#0C111D"/>
<path d="M124.033 18.7099H119.51V33.2499H124.033V18.7099Z" fill="#0C111D"/>
</svg>
