<svg width="108" height="32" viewBox="0 0 108 32" fill="none" xmlns="http://www.w3.org/2000/svg">
<path fill-rule="evenodd" clip-rule="evenodd" d="M11.7509 4.3335H21.6188L29.2628 16.7775L18.7437 27.4102L3.61817 24.7129L0.179688 11.9063L11.7509 4.3335ZM12.1025 7.64632L7.55846 17.7163L11.8587 21.277L17.7418 18.7453L12.1025 7.64632ZM20.3209 17.8463L26.4634 16.0414L21.6646 8.22917L20.3209 17.8463ZM19.91 6.3335H13.6788L18.5661 15.9524L19.91 6.3335ZM24.563 18.6844L20.0437 20.0123L19.6805 23.6196L24.563 18.6844ZM17.5627 24.6897L17.951 20.8327L13.9128 22.5704L17.5627 24.6897ZM13.0031 24.3549L5.72799 23.0576L6.82629 19.7067L11.1182 23.2605L13.0031 24.3549ZM5.20452 18.2333L3.40206 16.1952L4.51451 20.3385L5.20452 18.2333ZM2.84831 12.5501L6.05786 16.1792L9.72688 8.04837L2.84831 12.5501Z" fill="#6938EF"/>
<path fill-rule="evenodd" clip-rule="evenodd" d="M49.8233 15.2333C49.8233 18.7713 47.5033 21.478 44.2167 22.0387V22.5993C44.2167 23.508 44.6033 23.8367 45.5313 23.8367H107.453V25.944H45.3767C42.8053 25.944 41.684 25.016 41.684 22.754V22.058C38.3393 21.5167 36 18.7907 36 15.2333C36 11.2507 38.9387 8.31201 42.9213 8.31201C46.8847 8.31201 49.8233 11.2507 49.8233 15.2333ZM38.9193 15.2333C38.9193 17.766 40.582 19.6413 42.902 19.6413C45.222 19.6413 46.904 17.766 46.904 15.2333C46.904 12.7007 45.222 10.806 42.902 10.806C40.582 10.806 38.9193 12.7007 38.9193 15.2333Z" fill="#0A0D12"/>
<path d="M55.2604 19.7573C56.4397 19.7573 57.271 18.8293 57.271 17.592V12.256H59.9777V22H57.271V20.6467C56.7297 21.5747 55.647 22.1547 54.313 22.1547C52.1284 22.1547 50.6977 20.55 50.6977 18.3267V12.256H53.385V17.7273C53.385 18.9067 54.1584 19.7573 55.2604 19.7573Z" fill="#0A0D12"/>
<path fill-rule="evenodd" clip-rule="evenodd" d="M69.4705 15.736C69.4705 13.532 67.6725 12.1013 65.2172 12.1013C62.5492 12.1013 60.9639 13.6673 60.8479 15.62H63.2452C63.2839 14.808 63.8832 14.0733 65.0625 14.0733C66.1645 14.0733 66.8025 14.634 66.8025 15.446C66.8025 15.852 66.5512 16.1613 66.0679 16.1613H64.4245C62.2979 16.1613 60.8672 17.3213 60.8672 19.2353C60.8672 20.898 62.1625 22.1547 64.0572 22.1547C65.3912 22.1547 66.4739 21.5553 66.8025 20.6467V22H69.4705V15.736ZM66.8025 17.998C66.8025 19.2353 66.0485 20.202 64.7339 20.202C63.9799 20.202 63.4385 19.7573 63.4385 19.1193C63.4385 18.3653 64.0185 17.8627 64.8305 17.8627H66.8025V17.998Z" fill="#0A0D12"/>
<path fill-rule="evenodd" clip-rule="evenodd" d="M80.7885 22C78.5459 22 77.0959 20.724 77.0959 18.462V9.37534H79.7832V12.256H90.8898V14.4987L85.8438 19.738H91.1797V21.6959L96.2069 8.46668H98.9715L104.114 22H101.098L100.035 19.042H95.1435L94.0802 22H80.7885ZM82.7118 19.738L87.8158 14.4987H79.7832V18.346C79.7832 19.2933 80.2859 19.738 81.1559 19.738H82.7118ZM97.5989 12.2173L96.0135 16.606H99.1649L97.5989 12.2173Z" fill="#0A0D12"/>
<path d="M73.2485 13.88C73.7705 12.662 74.5052 12.256 75.6845 12.256H76.3419V14.4987H75.1819C73.8479 14.4987 73.2485 15.6007 73.2485 17.2633V22H70.5419V12.256H73.2485V13.88Z" fill="#0A0D12"/>
<path d="M107.454 8.46668H104.535V22H107.454V8.46668Z" fill="#0A0D12"/>
</svg>
