<svg width="240" height="40" viewBox="0 0 240 40" fill="none" xmlns="http://www.w3.org/2000/svg">
<g clip-path="url(#clip0_2809_400107)">
<path d="M90.3496 15.6197V30.4764H84.9248V15.6197H79.4379V10.8897H95.821V15.6197H90.3496Z" fill="#344054"/>
<path d="M108.5 24.5682H99.8819C100.052 26.1965 100.998 26.9099 102.377 26.9099C103.664 26.9099 104.733 26.6308 106.175 25.8709L108.097 29.0965C106.283 30.1666 104.408 30.7714 102.114 30.7714C97.6965 30.7714 95.263 27.6388 95.263 23.1259C95.263 18.0548 98.115 15.4649 101.974 15.4649C106.004 15.4649 108.515 18.1168 108.515 23.5757C108.515 24.0099 108.515 24.3201 108.5 24.5682ZM101.835 19.2024C100.688 19.2024 100.052 19.9933 99.8819 21.4356H104.082C103.819 19.9468 103.323 19.2024 101.835 19.2024Z" fill="#344054"/>
<path d="M117.862 30.7866C113.553 30.7866 110.98 28.0416 110.98 23.0945C110.98 18.5817 113.274 15.4801 117.97 15.4801C120.744 15.4801 122.325 16.7673 123.612 18.8298L120.14 21.4662C119.442 20.179 118.962 19.5587 117.877 19.5587C116.591 19.5587 115.94 20.8459 115.94 23.1721C115.94 25.4983 116.637 26.6924 118.017 26.6924C118.962 26.6924 119.644 26.1651 120.558 24.7849L123.751 27.2817C122.046 29.794 120.465 30.7866 117.862 30.7866Z" fill="#344054"/>
<path d="M135.02 30.4766V22.1332C135.02 20.2257 134.384 19.7295 133.346 19.7295C132.276 19.7295 131.641 20.2257 131.641 22.0867V30.4766H126.603V12.084L131.641 10.0679V16.7674C132.571 16.0696 133.594 15.4803 135.33 15.4803C138.553 15.4803 140.088 17.6359 140.088 21.4974V30.4766H135.02Z" fill="#344054"/>
<path d="M152.131 30.7868C146.319 30.7868 143.203 26.4755 143.203 20.691C143.203 14.3947 146.892 10.5952 152.147 10.5952C156.952 10.5952 158.858 12.6733 160.206 16.3643L155.293 18.2717C154.596 16.4573 153.929 15.3097 152.131 15.3097C149.868 15.3097 148.892 17.5739 148.892 20.6755C148.892 23.6686 149.837 26.0413 152.193 26.0413C153.898 26.0413 154.627 25.1108 155.681 23.2654L160.268 25.7001C158.967 28.29 156.781 30.7868 152.131 30.7868Z" fill="#344054"/>
<path d="M172.653 21.3269C172.017 20.6291 171.289 20.1018 170.312 20.1018C169.088 20.1018 168.328 20.6911 168.328 22.4745V30.4767H163.291V15.7906H168.328V16.8606C169.196 16.0232 170.173 15.4959 171.459 15.4959C172.529 15.4959 173.242 15.744 173.831 16.1162L172.653 21.3269Z" fill="#344054"/>
<path d="M184.618 30.4766V29.4996C183.719 30.1975 182.665 30.7868 180.96 30.7868C177.737 30.7868 176.202 28.6312 176.202 24.7697V15.7905H181.27V24.1338C181.27 26.0413 181.906 26.5376 182.944 26.5376C183.983 26.5376 184.618 26.0413 184.618 24.1803V15.7905H189.687V30.4766H184.618Z" fill="#344054"/>
<path d="M201.73 30.4764V22.1331C201.73 20.2256 201.095 19.7293 200.056 19.7293C198.987 19.7293 198.351 20.2256 198.351 22.0865V30.4764H193.314V15.7902H198.351V16.7673C199.281 16.0694 200.304 15.4801 202.04 15.4801C205.264 15.4801 206.798 17.6357 206.798 21.4972V30.4764H201.73Z" fill="#344054"/>
<path d="M216.61 30.7866C212.301 30.7866 209.728 28.0416 209.728 23.0945C209.728 18.5817 212.022 15.4801 216.718 15.4801C219.493 15.4801 221.074 16.7673 222.36 18.8298L218.888 21.4662C218.191 20.179 217.71 19.5587 216.625 19.5587C215.339 19.5587 214.688 20.8459 214.688 23.1721C214.688 25.4983 215.385 26.6924 216.765 26.6924C217.71 26.6924 218.392 26.1651 219.307 24.7849L222.5 27.2817C220.795 29.794 219.214 30.7866 216.61 30.7866Z" fill="#344054"/>
<path d="M233.768 30.4766V22.1332C233.768 20.2257 233.132 19.7295 232.094 19.7295C231.024 19.7295 230.389 20.2257 230.389 22.0867V30.4766H225.351V12.084L230.389 10.0679V16.7674C231.319 16.0696 232.342 15.4803 234.078 15.4803C237.302 15.4803 238.836 17.6359 238.836 21.4974V30.4766H233.768Z" fill="#344054"/>
<path d="M0.916748 2.5V13.6968H12.1075V36.075H23.2827V13.6968H34.4734V2.5H0.916748Z" fill="#344054"/>
<path d="M45.6487 24.8783V13.6969L34.4734 13.6968L34.4734 36.0751H68.0147V24.8783H45.6487Z" fill="#344054"/>
<path d="M68.0147 2.5H45.6487L45.6487 13.6969L68.0147 13.6968V2.5Z" fill="#344054"/>
</g>
<defs>
<clipPath id="clip0_2809_400107">
<rect width="238.333" height="40" fill="white" transform="translate(0.916748)"/>
</clipPath>
</defs>
</svg>
