<svg width="44" height="48" viewBox="0 0 44 48" fill="none" xmlns="http://www.w3.org/2000/svg">
<path d="M14.778 19.4497C20.5389 16.6945 25.0474 12.019 27.6357 6.17457C25.9658 4.42125 23.7951 3.16888 21.4573 2.41746L20.2049 2C20.1214 2.16698 20.0379 2.41747 20.0379 2.58445C18.0342 8.26187 13.9431 12.8539 8.43264 15.4421C4.59203 17.2789 1.75332 20.6186 0.417457 24.6262L0 25.8786C0.166983 25.962 0.417461 26.0455 0.584444 26.0455C2.17078 26.63 3.75712 27.3814 5.25996 28.2998C7.34725 24.5427 10.6869 21.37 14.778 19.4497Z" fill="#087443"/>
<path d="M38.9905 19.7837C35.9013 24.4592 31.6432 28.2163 26.3833 30.7211C22.1252 32.7249 18.869 36.482 17.3662 40.9905L16.9487 42.4099C18.5351 43.8292 20.4554 44.9146 22.5427 45.5826L23.795 46C23.8785 45.833 23.962 45.5826 23.962 45.4156C25.9658 39.7382 30.0569 35.1461 35.5673 32.5579C39.4079 30.7211 42.3301 27.3814 43.5825 23.3738L44 22.1215C42.2466 21.6205 40.5768 20.7856 38.9905 19.7837Z" fill="#16B364"/>
<path d="M13.6091 38.0682C15.6964 33.0587 19.537 28.9676 24.463 26.6299C28.9715 24.4591 32.7287 21.1194 35.3169 17.0283C33.3966 15.1915 31.8102 13.1042 30.6414 10.5995C27.5522 16.2769 22.7097 20.8689 16.7818 23.7077C13.3586 25.294 10.6034 28.0492 8.93359 31.3889C10.7704 33.1422 12.2733 35.313 13.4421 37.7342C13.4421 37.7342 13.5256 37.9012 13.6091 38.0682Z" fill="#099250"/>
</svg>
