<svg width="38" height="48" viewBox="0 0 38 48" fill="none" xmlns="http://www.w3.org/2000/svg">
<path fill-rule="evenodd" clip-rule="evenodd" d="M19.7655 3.4479C19.2605 3.34403 18.7396 3.34403 18.2345 3.4479C17.6507 3.56797 17.1289 3.86023 16.7141 4.09258L16.601 4.15574L2.54153 11.9666C2.50266 11.9882 2.46261 12.0102 2.42157 12.0328C1.98243 12.2747 1.43029 12.5788 1.00627 13.0389C0.639674 13.4368 0.362246 13.9082 0.192535 14.4219C-0.00375985 15.016 -0.00146325 15.6464 0.000363158 16.1477C0.000533889 16.1946 0.000700421 16.2403 0.000700421 16.2847V31.7067C0.000700421 31.7511 0.000533889 31.7969 0.000363158 31.8437C-0.00146325 32.3451 -0.00375985 32.9754 0.192536 33.5695C0.362247 34.0832 0.639677 34.5547 1.00627 34.9525C1.43029 35.4126 1.98244 35.7167 2.42157 35.9586C2.46261 35.9812 2.50266 36.0033 2.54153 36.0249L16.601 43.8357L16.7141 43.8988C17.1289 44.1312 17.6507 44.4235 18.2345 44.5435C18.7396 44.6474 19.2605 44.6474 19.7655 44.5435C20.3493 44.4235 20.8711 44.1312 21.2859 43.8988L21.399 43.8357L35.4585 36.0249C35.4757 36.0153 35.4931 36.0057 35.5107 35.9959C35.5329 35.9837 35.5555 35.9712 35.5784 35.9586C36.0176 35.7167 36.5697 35.4126 36.9937 34.9525C37.3603 34.5547 37.6378 34.0832 37.8075 33.5695C38.0038 32.9754 38.0015 32.3451 37.9996 31.8437C37.9995 31.7969 37.9993 31.7511 37.9993 31.7067V16.2847C37.9993 16.2403 37.9995 16.1946 37.9996 16.1477C38.0015 15.6464 38.0038 15.016 37.8075 14.4219C37.6378 13.9082 37.3603 13.4367 36.9937 13.0389C36.5697 12.5788 36.0176 12.2747 35.5784 12.0328L35.5769 12.032C35.5364 12.0097 35.4968 11.9879 35.4585 11.9666L21.399 4.15574L21.2859 4.09257C20.8711 3.86022 20.3493 3.56797 19.7655 3.4479ZM18.4464 7.47742C18.7343 7.31746 18.8813 7.23664 18.9909 7.18376L19 7.17941L19.0091 7.18376C19.1187 7.23664 19.2657 7.31746 19.5536 7.47742L32.1871 14.496L18.9999 21.8222L5.81285 14.4961L18.4464 7.47742ZM3.80056 17.725L17.1 25.1136L17.1001 39.766L4.38691 32.7032C4.08301 32.5343 3.92785 32.4472 3.81899 32.3779L3.8098 32.372L3.80911 32.3611C3.80135 32.2323 3.80056 32.0543 3.80056 31.7067V17.725Z" fill="white"/>
</svg>
